<svg xmlns="http://www.w3.org/2000/svg" version="1.1" xmlns:xlink="http://www.w3.org/1999/xlink" xmlns:svgjs="http://svgjs.dev/svgjs" width="1500" height="1500" viewBox="0 0 1500 1500"><rect width="1500" height="1500" fill="#ffffff"></rect><g transform="matrix(0.6666666666666666,0,0,0.6666666666666666,250.00011477487288,187.66666666666674)"><svg viewBox="0 0 320 360" data-background-color="#0073f7" preserveAspectRatio="xMidYMid meet" height="1687" width="1500" xmlns="http://www.w3.org/2000/svg" xmlns:xlink="http://www.w3.org/1999/xlink"><g id="tight-bounds" transform="matrix(1,0,0,1,-0.00003672795929787753,0)"><svg viewBox="0 0 320 360" height="360" width="320"><g><svg></svg></g><g><svg viewBox="0 0 320 360" height="360" width="320"><g><path transform="translate(-32.1528,-12.1528) scale(3.84303,3.84303)" d="M88.492 50l1.711-2.963c2.946-5.102 1.198-11.626-3.904-14.572l-2.963-1.711v-3.422c0-5.891-4.776-10.667-10.667-10.667h-3.422l-1.711-2.963c-2.946-5.102-9.47-6.85-14.572-3.904l-2.964 1.71-2.963-1.711c-5.102-2.945-11.626-1.197-14.572 3.905l-1.711 2.963h-3.422c-5.891 0-10.667 4.776-10.667 10.667v3.422l-2.963 1.711c-5.102 2.946-6.85 9.47-3.904 14.572l1.71 2.963-1.711 2.963c-2.945 5.102-1.197 11.626 3.905 14.572l2.963 1.711v3.422c0 5.891 4.776 10.667 10.667 10.667h3.422l1.711 2.963c2.946 5.102 9.47 6.85 14.572 3.904l2.963-1.71 2.963 1.711c5.102 2.946 11.626 1.198 14.572-3.904l1.711-2.963h3.422c5.891 0 10.667-4.776 10.667-10.667v-3.422l2.963-1.711c5.102-2.946 6.85-9.47 3.904-14.572zM85.832 33.273c2.252 1.3 3.862 3.399 4.535 5.91 0.673 2.511 0.328 5.135-0.972 7.386l-1.441 2.497-4.618-7.999v-9.236zM73.72 73.72l-15.038 8.682h-17.364l-15.038-8.682-8.682-15.038v-17.364l8.682-15.038 15.038-8.682h17.364l15.038 8.682 8.682 15.038v17.364zM82.401 60.549v8.158l-7.065 4.079zM72.786 75.336l-4.079 7.065h-8.158zM57.065 83.335l-7.065 4.079-7.065-4.079zM39.451 82.401h-8.158l-4.079-7.065zM24.664 72.786l-7.065-4.079v-8.158zM16.665 57.065l-4.079-7.065 4.079-7.065zM17.599 39.451v-8.158l7.065-4.079zM27.214 24.664l4.079-7.065h8.158zM42.935 16.665l7.065-4.079 7.065 4.079zM60.549 17.599h8.158l4.079 7.065zM75.336 27.214l7.065 4.079v8.158zM83.335 42.935l4.079 7.065-4.079 7.065zM72.668 17.599c2.6 0 5.044 1.012 6.883 2.851 1.838 1.838 2.851 4.283 2.851 6.883v2.883l-7.999-4.618-4.618-7.999zM53.43 10.606c2.252-1.3 4.875-1.645 7.386-0.972 2.511 0.673 4.61 2.284 5.91 4.535l1.441 2.497h-9.236l-7.999-4.618zM33.273 14.168c1.3-2.252 3.399-3.862 5.91-4.535 2.511-0.673 5.135-0.328 7.386 0.972l2.497 1.441-7.999 4.618h-9.236zM17.599 27.332c0-2.6 1.012-5.044 2.851-6.883 1.838-1.838 4.283-2.851 6.883-2.851h2.883l-4.618 7.999-7.999 4.618zM10.606 46.57c-1.3-2.252-1.645-4.875-0.972-7.386 0.673-2.511 2.284-4.61 4.535-5.91l2.497-1.441v9.236l-4.618 7.999zM14.168 66.727c-2.252-1.3-3.862-3.399-4.535-5.91-0.673-2.511-0.328-5.135 0.972-7.386l1.441-2.497 4.618 7.999v9.236zM27.332 82.401c-2.6 0-5.044-1.012-6.883-2.851-1.838-1.838-2.851-4.283-2.851-6.883v-2.883l7.999 4.618 4.618 7.999zM46.57 89.394c-2.252 1.3-4.875 1.645-7.386 0.972-2.511-0.673-4.61-2.284-5.91-4.535l-1.441-2.497h9.236l7.999 4.618zM66.727 85.832c-1.3 2.252-3.399 3.862-5.91 4.535-2.511 0.673-5.135 0.328-7.386-0.972l-2.497-1.441 7.999-4.618h9.236zM82.401 72.668c0 2.6-1.012 5.044-2.851 6.883-1.838 1.838-4.283 2.851-6.883 2.851h-2.883l4.618-7.999 7.999-4.618zM90.367 60.816c-0.673 2.511-2.284 4.61-4.535 5.91l-2.497 1.441v-9.236l4.618-7.999 1.441 2.497c1.3 2.253 1.646 4.876 0.973 7.387z" fill="#000000" fill-rule="nonzero" stroke="none" stroke-width="1" stroke-linecap="butt" stroke-linejoin="miter" stroke-miterlimit="10" stroke-dasharray="" stroke-dashoffset="0" font-family="none" font-weight="none" font-size="none" text-anchor="none" style="mix-blend-mode: normal" data-fill-palette-color="tertiary"></path></g><g transform="matrix(1,0,0,1,66.52737838944917,90)"><svg viewBox="0 0 186.94524322110166 180" height="180" width="186.94524322110166"><g><svg viewBox="0 0 192 184.86696641500316" height="180" width="186.94524322110166"><g transform="matrix(1,0,0,1,0,138.65110291265893)"><svg viewBox="0 0 192 46.21586350234424" height="46.21586350234424" width="192"><g id="textblocktransform"><svg viewBox="0 0 192 46.21586350234424" height="46.21586350234424" width="192" id="textblock"><g><svg viewBox="0 0 192 46.21586350234424" height="46.21586350234424" width="192"><g transform="matrix(1,0,0,1,0,0)"><svg width="192" viewBox="3.91 -35.86 151.516301367223 36.47" height="46.21586350234424" data-palette-color="#ffffff"><path d="M11.79-14.84L11.79-1.29Q11.79-0.56 11.49-0.28 11.18 0 10.45 0L10.45 0 5.25 0Q4.52 0 4.21-0.28 3.91-0.56 3.91-1.29L3.91-1.29 3.91-31.1Q3.91-31.81 4.15-32.18L4.15-32.18Q5.25-33.79 7.23-35.57L7.23-35.57Q7.59-35.86 7.86-35.86L7.86-35.86Q8.15-35.86 8.47-35.57L8.47-35.57Q9.55-34.64 10.28-33.8 11.01-32.96 11.55-32.18L11.55-32.18Q11.79-31.79 11.79-31.1L11.79-31.1 11.79-20.97 12.35-20.97Q15.41-20.97 17.31-21.81 19.21-22.66 20.24-24.08 21.26-25.51 21.64-27.27 22.02-29.03 22.02-30.86L22.02-30.86 22.02-31.1Q22.02-31.81 22.27-32.18L22.27-32.18Q23.36-33.79 25.34-35.57L25.34-35.57Q25.71-35.86 25.98-35.86L25.98-35.86Q26.27-35.86 26.59-35.57L26.59-35.57Q27.66-34.64 28.39-33.8 29.13-32.96 29.66-32.18L29.66-32.18Q29.91-31.79 29.91-31.1L29.91-31.1 29.91-30.86Q29.91-28.88 29.52-26.77 29.13-24.66 28.14-22.78 27.15-20.9 25.35-19.57 23.56-18.24 20.73-17.82L20.73-17.82 20.73-17.65Q23.27-16.85 25.26-14.98 27.25-13.11 28.7-10.72 30.15-8.33 31.08-5.91 32.01-3.49 32.4-1.59L32.4-1.59Q32.59-0.68 32.4-0.34 32.2 0 31.47 0L31.47 0 25.49 0Q24.24 0 24.02-1.15L24.02-1.15Q23.66-3 22.6-5.33 21.53-7.67 19.95-9.84 18.36-12.01 16.42-13.43 14.48-14.84 12.35-14.84L12.35-14.84 11.79-14.84ZM49.14 0.61L49.14 0.61Q45.02 0.61 41.97-0.72 38.91-2.05 37.23-4.86 35.54-7.67 35.54-12.11L35.54-12.11Q35.54-18.77 38.96-22.19 42.38-25.61 48.04-25.61L48.04-25.61Q51.73-25.61 54.28-24.29 56.83-22.97 58.16-20.65 59.49-18.33 59.49-15.36L59.49-15.36Q59.49-12.45 58.01-11.3 56.52-10.16 53.66-10.16L53.66-10.16 43.19-10.16Q43.38-7.64 45.03-6.32 46.68-5 49.51-5L49.51-5Q51.76-5 53.11-5.68 54.47-6.35 55-6.74L55-6.74Q55.47-7.08 56.05-7.06L56.05-7.06Q56.52-7.06 57.38-6.87 58.25-6.69 59.1-6.2L59.1-6.2Q59.71-5.88 59.71-5.32L59.71-5.32Q59.71-5 59.59-4.42L59.59-4.42Q59.52-4.08 59.35-3.43 59.18-2.78 58.91-2.22L58.91-2.22Q58.76-1.95 58.44-1.71L58.44-1.71Q57.96-1.37 56.87-0.81 55.78-0.24 53.9 0.18 52.02 0.61 49.14 0.61ZM43.14-15.16L43.14-15.16 51.1-15.16Q52.34-15.16 52.34-16.31L52.34-16.31Q52.34-18.04 51.25-19.23 50.17-20.41 48-20.41L48-20.41Q45.63-20.41 44.52-18.9 43.41-17.38 43.14-15.16ZM87.23-22.44L87.23-22.44Q88.13-23.54 90.02-24.57 91.91-25.61 95.36-25.61L95.36-25.61Q100.24-25.61 102.41-23.1 104.58-20.58 104.58-15.55L104.58-15.55 104.58-1.29Q104.58-0.56 104.28-0.28 103.97 0 103.24 0L103.24 0 98.21 0Q97.48 0 97.18-0.28 96.87-0.56 96.87-1.29L96.87-1.29 96.87-14.28Q96.87-17.02 95.87-18.2 94.87-19.38 92.87-19.38L92.87-19.38Q91.08-19.38 90.05-18.59 89.01-17.8 88.57-16.46L88.57-16.46 88.57-1.29Q88.57-0.56 88.26-0.28 87.96 0 87.23 0L87.23 0 82.2 0Q81.46 0 81.16-0.28 80.85-0.56 80.85-1.29L80.85-1.29 80.85-14.28Q80.85-16.94 79.76-18.16 78.66-19.38 76.87-19.38L76.87-19.38Q75.19-19.38 74.16-18.55 73.14-17.72 72.58-16.46L72.58-16.46 72.58-1.29Q72.58-0.56 72.27-0.28 71.97 0 71.24 0L71.24 0 66.21 0Q65.47 0 65.17-0.28 64.86-0.56 64.86-1.29L64.86-1.29 64.86-21.75Q64.86-22.34 65.11-22.66L65.11-22.66Q65.62-23.34 66.34-24.05 67.06-24.76 68.11-25.56L68.11-25.56Q68.43-25.81 68.72-25.81L68.72-25.81Q68.99-25.81 69.33-25.56L69.33-25.56Q70.36-24.76 71.09-24.02 71.82-23.29 72.38-22.51L72.38-22.51 72.5-22.51Q73.33-23.56 75.09-24.58 76.85-25.61 80.12-25.61L80.12-25.61Q83.25-25.61 84.76-24.67 86.27-23.73 87.23-22.44ZM123.43 0.61L123.43 0.61Q119.3 0.61 116.25-0.72 113.2-2.05 111.52-4.86 109.83-7.67 109.83-12.11L109.83-12.11Q109.83-18.77 113.25-22.19 116.67-25.61 122.33-25.61L122.33-25.61Q126.02-25.61 128.57-24.29 131.12-22.97 132.45-20.65 133.78-18.33 133.78-15.36L133.78-15.36Q133.78-12.45 132.29-11.3 130.8-10.16 127.95-10.16L127.95-10.16 117.47-10.16Q117.67-7.64 119.32-6.32 120.96-5 123.8-5L123.8-5Q126.04-5 127.4-5.68 128.75-6.35 129.29-6.74L129.29-6.74Q129.75-7.08 130.34-7.06L130.34-7.06Q130.8-7.06 131.67-6.87 132.54-6.69 133.39-6.2L133.39-6.2Q134-5.88 134-5.32L134-5.32Q134-5 133.88-4.42L133.88-4.42Q133.81-4.08 133.64-3.43 133.46-2.78 133.2-2.22L133.2-2.22Q133.05-1.95 132.73-1.71L132.73-1.71Q132.24-1.37 131.16-0.81 130.07-0.24 128.19 0.18 126.31 0.61 123.43 0.61ZM117.42-15.16L117.42-15.16 125.38-15.16Q126.63-15.16 126.63-16.31L126.63-16.31Q126.63-18.04 125.54-19.23 124.46-20.41 122.28-20.41L122.28-20.41Q119.91-20.41 118.8-18.9 117.69-17.38 117.42-15.16ZM149.04 0.61L149.04 0.61Q140.88 0.61 140.88-7.86L140.88-7.86 140.88-19.31 138.12-19.31Q137.39-19.31 137.11-19.62 136.83-19.92 136.83-20.65L136.83-20.65 136.83-23.66Q136.83-24.39 137.11-24.69 137.39-25 138.12-25L138.12-25 140.88-25 140.88-28.93Q140.88-29.52 141.13-29.83L141.13-29.83Q142.15-31.18 144.13-32.74L144.13-32.74Q144.47-32.98 144.74-32.98L144.74-32.98Q145.03-32.98 145.33-32.74L145.33-32.74Q146.38-31.93 147.1-31.23 147.82-30.52 148.33-29.83L148.33-29.83Q148.57-29.52 148.57-28.93L148.57-28.93 148.57-25 152.9-25Q153.63-25 153.91-24.69 154.19-24.39 154.19-23.66L154.19-23.66 154.19-20.65Q154.19-19.92 153.91-19.62 153.63-19.31 152.9-19.31L152.9-19.31 148.57-19.31 148.57-9.2Q148.57-5.3 151.41-5.3L151.41-5.3Q151.85-5.3 152.21-5.38 152.58-5.47 152.85-5.57L152.85-5.57Q153.36-5.76 153.57-5.71 153.77-5.66 153.95-5.18L153.95-5.18 155.36-1.39Q155.58-0.78 155.07-0.51L155.07-0.51Q154.7-0.34 153.3 0.13 151.89 0.61 149.04 0.61Z" opacity="1" transform="matrix(1,0,0,1,0,0)" fill="#000000" class="wordmark-text-0" data-fill-palette-color="primary" id="text-0"></path></svg></g></svg></g></svg></g></svg></g><g transform="matrix(1,0,0,1,24.12967663976025,0)"><svg viewBox="0 0 143.7406467204795 127.7406467204795" height="127.7406467204795" width="143.7406467204795"><g><svg xmlns="http://www.w3.org/2000/svg" xmlns:xlink="http://www.w3.org/1999/xlink" version="1.1" x="8" y="0" viewBox="0.5 0.5 47 47" enable-background="new 0 0 48 48" xml:space="preserve" height="127.7406467204795" width="127.7406467204795" class="icon-icon-0" data-fill-palette-color="accent" id="icon-0"><g fill="#ffffff" data-fill-palette-color="accent"><g fill="#ffffff" data-fill-palette-color="accent"><g fill="#ffffff" data-fill-palette-color="accent"><path fill="#000000" d="M41.4 35.5H6.6c-0.6 0-1-0.4-1-1V7c0-0.6 0.4-1 1-1h34.7c0.6 0 1 0.4 1 1v27.5C42.4 35.1 41.9 35.5 41.4 35.5zM7.6 33.5h32.7V8H7.6V33.5z" data-fill-palette-color="accent"></path><path fill="#000000" d="M36.4 32.1H11.6c-0.6 0-1-0.4-1-1V13.7c0-0.6 0.4-1 1-1h24.8c0.6 0 1 0.4 1 1v17.4C37.4 31.7 37 32.1 36.4 32.1zM12.6 30.1h22.8V14.7H12.6V30.1z" data-fill-palette-color="accent"></path><path fill="#000000" d="M36.4 11.4h-5.2c-0.6 0-1-0.4-1-1 0-0.6 0.4-1 1-1h5.2c0.6 0 1 0.4 1 1C37.4 11 37 11.4 36.4 11.4z" data-fill-palette-color="accent"></path></g><path fill="#000000" d="M46.5 40.7h-45c-0.6 0-1-0.4-1-1V1.5c0-0.6 0.4-1 1-1h45c0.6 0 1 0.4 1 1v38.2C47.5 40.3 47.1 40.7 46.5 40.7zM2.5 38.7h43V2.5h-43V38.7z" data-fill-palette-color="accent"></path><path fill="#000000" d="M32 47.5H16c-0.6 0-1-0.4-1-1v-6.8c0-0.6 0.4-1 1-1h16c0.6 0 1 0.4 1 1v6.8C33 47.1 32.5 47.5 32 47.5zM17 45.5h14v-4.8H17V45.5z" data-fill-palette-color="accent"></path><path fill="#000000" d="M35.9 47.5H12.1c-0.6 0-1-0.4-1-1 0-0.6 0.4-1 1-1h23.8c0.6 0 1 0.4 1 1C36.9 47.1 36.5 47.5 35.9 47.5z" data-fill-palette-color="accent"></path></g><g fill="#ffffff" data-fill-palette-color="accent"><path fill="#000000" d="M20.7 21.3v1.6l-5.8 2.7v-1.8l3.9-1.8-3.9-1.8v-1.8L20.7 21.3z" data-fill-palette-color="accent"></path><path fill="#000000" d="M22 28.4v-1h7v1H22z" data-fill-palette-color="accent"></path></g></g></svg></g></svg></g><g><rect width="21.60229825031108" height="4.167794265412538" y="122.57285245506696" x="167.87032336023975" fill="#000000" data-fill-palette-color="accent"></rect><rect width="21.60229825031108" height="4.167794265412538" y="122.57285245506696" x="2.5273783894491686" fill="#000000" data-fill-palette-color="accent"></rect><rect width="21.60229825031108" height="4.167794265412538" y="114.23726392424189" x="167.87032336023975" fill="#000000" data-fill-palette-color="accent"></rect><rect width="21.60229825031108" height="4.167794265412538" y="114.23726392424189" x="2.5273783894491686" fill="#000000" data-fill-palette-color="accent"></rect></g></svg></g></svg></g></svg></g><defs></defs></svg><rect width="320" height="360" fill="none" stroke="none" visibility="hidden"></rect></g></svg></g></svg>