<svg xmlns="http://www.w3.org/2000/svg" version="1.1" xmlns:xlink="http://www.w3.org/1999/xlink" xmlns:svgjs="http://svgjs.dev/svgjs" width="2000" height="2250" viewBox="0 0 2000 2250"><g transform="matrix(1,0,0,1,0,0.0007531249998464773)"><svg viewBox="0 0 320 360" data-background-color="#02474d" preserveAspectRatio="xMidYMid meet" height="2250" width="2000" xmlns="http://www.w3.org/2000/svg" xmlns:xlink="http://www.w3.org/1999/xlink"><g id="tight-bounds" transform="matrix(1,0,0,1,0,-0.00012049999997998384)"><svg viewBox="0 0 320 360" height="360" width="320"><g><svg></svg></g><g><svg viewBox="0 0 320 360" height="360" width="320"><g><path transform="translate(-76.07486,-56.3133) scale(4.7215,4.7215)" d="M24.473 37.513l0.604-1.109c4.807-8.829 14.163-14.821 24.923-14.82 10.763 0 20.122 5.995 24.928 14.827l0.604 1.11 1.731-6.637 6.572 1.686-0.562-1.015c-6.478-11.702-18.949-19.628-33.273-19.628-14.324 0-26.794 7.926-33.274 19.628l-0.562 1.014 6.579-1.685zM50 12.927c13.521 0 25.324 7.262 31.785 18.085l-5.238-1.343-1.359 5.212c-5.129-8.559-14.483-14.297-25.188-14.297-10.701 0-20.053 5.735-25.182 14.289l-1.358-5.205-5.245 1.343c6.461-10.823 18.265-18.084 31.785-18.084zM75.527 62.587l-0.604 1.109c-4.807 8.83-14.163 14.821-24.923 14.821-10.763 0-20.122-5.994-24.928-14.827l-0.604-1.109-1.731 6.636-6.573-1.686 0.562 1.015c6.479 11.701 18.949 19.628 33.274 19.628 14.324 0 26.795-7.927 33.274-19.628l0.562-1.014-6.579 1.685zM50 87.174c-13.521 0-25.324-7.262-31.785-18.085l5.237 1.344 1.36-5.212c5.129 8.557 14.483 14.296 25.188 14.296 10.702 0 20.053-5.735 25.183-14.29l1.357 5.205 5.245-1.343c-6.461 10.822-18.264 18.085-31.785 18.085z" fill="#ffffff" fill-rule="nonzero" stroke="none" stroke-width="1" stroke-linecap="butt" stroke-linejoin="miter" stroke-miterlimit="10" stroke-dasharray="" stroke-dashoffset="0" font-family="none" font-weight="none" font-size="none" text-anchor="none" style="mix-blend-mode: normal" data-fill-palette-color="tertiary"></path></g><g transform="matrix(1,0,0,1,73.1061591796969,90)"><svg viewBox="0 0 173.7876816406062 180" height="180" width="173.7876816406062"><g><svg viewBox="0 0 191.99999999999997 198.86334677891756" height="180" width="173.7876816406062"><g transform="matrix(1,0,0,1,0,149.1484546671383)"><svg viewBox="0 0 191.99999999999997 49.714892111779264" height="49.714892111779264" width="191.99999999999997"><g id="textblocktransform"><svg viewBox="0 0 191.99999999999997 49.714892111779264" height="49.714892111779264" width="191.99999999999997" id="textblock"><g><svg viewBox="0 0 191.99999999999997 49.714892111779264" height="49.714892111779264" width="191.99999999999997"><g transform="matrix(1,0,0,1,0,0)"><svg width="191.99999999999997" viewBox="1.25 -36.25 141.34 36.6" height="49.714892111779264" data-palette-color="url(#786dace5-f07f-4f7e-9384-02741e0e9bef)"><g class="wordmark-text-0" data-fill-palette-color="primary" id="text-0"></g></svg></g></svg></g></svg></g></svg></g><g transform="matrix(1,0,0,1,20.41184131617743,0)"><svg viewBox="0 0 151.1763173676451 137.4119617969579" height="137.4119617969579" width="151.1763173676451"><g><svg xmlns="http://www.w3.org/2000/svg" data-name="Layer 1" viewBox="28.506352615749723 24.745 454.989059419448 462.51399999999995" x="8" y="0" height="137.4119617969579" width="135.1763173676451" class="icon-icon-0" data-fill-palette-color="accent" id="icon-0"><polygon points="151.483 460.997 154.52 439.371 143.623 439.371 140.587 460.997 151.483 460.997" fill="#ffffff" data-fill-palette-color="accent"></polygon><path d="M165.333 191.9l-0.567-11.7a7.273 7.273 0 0 0-4.211 3.409l-4.929 8.3A46.221 46.221 0 0 0 165.333 191.9Z" fill="#ffffff" data-fill-palette-color="accent"></path><path d="M223.509 24.745L197.571 135.857 217.964 132l21.363-86.465C238.654 37.759 230.171 29.716 223.509 24.745Z" fill="#ffffff" data-fill-palette-color="accent"></path><path d="M51.9 250.868l82.436-8.326a5 5 0 1 1 1 9.949l-78.228 7.9 3.58 7.349a19.116 19.116 0 0 0 17.081 10.678h67.7a48.186 48.186 0 0 1 48.081 51.345l-3.392 51.6a34.963 34.963 0 0 0 32.342 22.7c0.231 0 0.464 0.007 0.7 0.007a35.172 35.172 0 0 0 33.012-22.593l-8.623-128.672a5 5 0 0 1 3.1-4.965q17.9-7.291 28.779-19.821a5.052 5.052 0 0 1 0.734-0.86c8.993-10.735 14.176-24.231 15.48-40.394a114.275 114.275 0 0 0-4.785-41.612 5.013 5.013 0 0 1-0.268-1.354c-1.823-31.915-7.359-76.2-23.37-105.935-0.077-0.144-0.154-0.279-0.231-0.421 8 43.454-4.612 106.943-5.286 110.273a5 5 0 0 1-9.8-1.985A465.3 465.3 0 0 0 258.909 92.1c1.918-28.227 0.278-50.29-4.741-64.942L222.917 153.65a5 5 0 0 1-9.709-2.4l2.119-8.573-67.015 12.669a33.565 33.565 0 0 0-21.282 13.592l-11.168 15.689A43.486 43.486 0 0 1 88 202.3L31.576 212.474a3.727 3.727 0 0 0-2.4 5.8Zm89.646-54.823l10.414-17.539c4.093-6.893 11.74-10.051 19.025-7.856l34.232 10.309a5 5 0 1 1-2.884 9.575l-5.608-1.689a55.978 55.978 0 0 1-36.258 13.3 54.969 54.969 0 0 1-10.344-0.965 5 5 0 0 1-8.577-5.137Z" fill="#ffffff" data-fill-palette-color="accent"></path><path d="M398.834 391.029c-2.6-54.776-28.74-103.467-50.866-135.31a387.068 387.068 0 0 0-44.7-53.323 81.886 81.886 0 0 1-4.542 13.476 351.528 351.528 0 0 1 30.834 49.1c14.551 27.827 32 70.2 34.025 116.148A89.044 89.044 0 0 1 398.834 391.029Z" fill="#ffffff" data-fill-palette-color="accent"></path><polygon points="174.906 460.997 176.328 439.371 164.617 439.371 161.581 460.997 174.906 460.997" fill="#ffffff" data-fill-palette-color="accent"></polygon><path d="M148.6 322.034h-5.167L123.65 429.371h53.335l1.715-26.1h-4.882a5 5 0 1 1 0-10h5.539l4.218-64.167a38.188 38.188 0 0 0-33.98-40.467l-4.313 23.393H148.6a5 5 0 1 1 0 10Z" fill="#ffffff" data-fill-palette-color="accent"></path><path d="M184.7 185.224l-9.821-2.957 0.361 7.446A46.369 46.369 0 0 0 184.7 185.224Z" fill="#ffffff" data-fill-palette-color="accent"></path><path d="M288.992 232.112l8.837 42.257 0 0.025L320.11 380.909h33.452c-3.4-71.735-45.959-135.885-60.031-155.24A72.673 72.673 0 0 1 288.992 232.112Z" fill="#ffffff" data-fill-palette-color="accent"></path><polygon points="271.563 460.997 282.585 460.997 279.549 439.371 270.113 439.371 271.563 460.997" fill="#ffffff" data-fill-palette-color="accent"></polygon><path d="M283.9 270.39h2.885l-6.142-29.37A86.244 86.244 0 0 1 257.8 255.676l9.222 137.6h3.394a5 5 0 0 1 0 10h-2.724l1.749 26.1h50.586L288.872 280.39H283.9a5 5 0 0 1 0-10Z" fill="#ffffff" data-fill-palette-color="accent"></path><polygon points="292.683 460.997 303.58 460.997 300.543 439.371 289.647 439.371 292.683 460.997" fill="#ffffff" data-fill-palette-color="accent"></polygon><polygon points="313.677 460.997 326.643 460.997 322.12 439.371 310.641 439.371 313.677 460.997" fill="#ffffff" data-fill-palette-color="accent"></polygon><path d="M223.2 414.073q-0.442 0-0.888-0.009a45.031 45.031 0 0 1-33.291-15.352l-0.922 14.027c9.7 14.017 25.879 21.469 41.655 19.039 16.029-2.461 25.479-14.418 28.554-18.987l-0.945-14.1A45.382 45.382 0 0 1 223.2 414.073Z" fill="#ffffff" data-fill-palette-color="accent"></path><path d="M400.94 487.255l-15.1-57.572q-9.591 5.643-20.042 10.585l12.543 46.987Z" fill="#ffffff" data-fill-palette-color="accent"></path><path d="M185.245 456.179a344.869 344.869 0 0 0 44.325 2.852c10.622 0 21.276-0.488 31.741-1.448l-2.035-30.362a50.58 50.58 0 0 1-28 14.441 49.106 49.106 0 0 1-7.451 0.568A53.016 53.016 0 0 1 187.163 427Z" fill="#ffffff" data-fill-palette-color="accent"></path><path d="M328.225 471H266.886a4.989 4.989 0 0 1-4.735-3.45c-9.1 0.833-18.341 1.318-27.581 1.447v18.261h96.543Z" fill="#ffffff" data-fill-palette-color="accent"></path><path d="M341.269 487.255H368L356.554 444.4q-10.411 4.434-21.468 8.121l2.6 12.456a4.98 4.98 0 0 1-0.012 2.074Z" fill="#ffffff" data-fill-palette-color="accent"></path><path d="M403.517 405.612a79.236 79.236 0 0 0-46.038-14.7H322.2l10.824 51.762C359.952 433.584 384.1 420.88 403.517 405.612Z" fill="#ffffff" data-fill-palette-color="accent"></path><path d="M482.811 460.647c3.133-58.147-4.5-110.55-22.7-155.827a269.992 269.992 0 0 0-65.553-96.562c-36.846-34.735-75.094-51.146-91.69-57.12 0.635 2.817 1.29 6.181 1.836 9.967 9.45 4.975 43.964 24.96 78.916 67.864 23.512 28.862 42.285 62.153 55.8 98.949 14.647 39.888 23.1 84.011 25.217 131.421Z" fill="#ffffff" data-fill-palette-color="accent"></path><path d="M120.572 390.909H114.3a79.346 79.346 0 0 0-52.222 19.568 231.892 231.892 0 0 0 49.911 27Z" fill="#ffffff" data-fill-palette-color="accent"></path><path d="M455.122 475.976c-0.712-52.42-9.1-100.929-24.96-144.252a333.727 333.727 0 0 0-53.947-96.012 290.539 290.539 0 0 0-53.8-51.5c-6.662-4.848-12.338-8.462-16.543-10.961a112.842 112.842 0 0 1-0.218 14.317c-0.078 0.971-0.176 1.958-0.287 2.955a381.879 381.879 0 0 1 50.817 59.486c23.778 34.22 52.035 87.349 52.844 147.226a89.661 89.661 0 0 1 38.16 73.376v5.361Z" fill="#ffffff" data-fill-palette-color="accent"></path><path d="M432.992 487.255a4.2 4.2 0 0 0 4.192-4.191V470.615a79.5 79.5 0 0 0-25.706-58.561 205.737 205.737 0 0 1-16.742 12.116l16.542 63.085Z" fill="#ffffff" data-fill-palette-color="accent"></path><path d="M95.575 441.326q-10.475-4.808-20.1-10.338L60.719 487.255H83.314Z" fill="#ffffff" data-fill-palette-color="accent"></path><path d="M34.592 470.615v12.449a4.2 4.2 0 0 0 4.191 4.191h11.6l16.17-61.667q-6.046-3.851-11.7-7.992A79.369 79.369 0 0 0 34.592 470.615Z" fill="#ffffff" data-fill-palette-color="accent"></path><polygon points="133.525 439.371 121.806 439.371 117.819 460.997 130.489 460.997 133.525 439.371" fill="#ffffff" data-fill-palette-color="accent"></polygon><path d="M224.57 468.986a354.479 354.479 0 0 1-39.983-2.8l-0.009 0.143a5 5 0 0 1-4.99 4.672H133.435l-2.889 16.258H224.57Z" fill="#ffffff" data-fill-palette-color="accent"></path><path d="M123.278 471H111.813a5 5 0 0 1-4.917-5.906l3.242-17.587q-2.67-1.043-5.294-2.129l-11.18 41.88H120.39Z" fill="#ffffff" data-fill-palette-color="accent"></path></svg></g></svg></g><g><rect width="11.305682136480542" height="4.483340276408914" y="131.928621520549" x="171.58815868382254" fill="#ffffff" data-fill-palette-color="accent"></rect><rect width="11.305682136480542" height="4.483340276408914" y="131.928621520549" x="9.106159179696888" fill="#ffffff" data-fill-palette-color="accent"></rect><rect width="11.305682136480542" height="4.483340276408914" y="122.96194096773117" x="171.58815868382254" fill="#ffffff" data-fill-palette-color="accent"></rect><rect width="11.305682136480542" height="4.483340276408914" y="122.96194096773117" x="9.106159179696888" fill="#ffffff" data-fill-palette-color="accent"></rect></g></svg></g></svg></g></svg></g><defs></defs><mask id="9f1b4a24-872e-4204-9ca3-ba397b1d2437"><g id="SvgjsG2661"><svg viewBox="0 0 320 360" height="360" width="320"><g><svg></svg></g><g><svg viewBox="0 0 320 360" height="360" width="320"><g><path transform="translate(-76.07486,-56.3133) scale(4.7215,4.7215)" d="M24.473 37.513l0.604-1.109c4.807-8.829 14.163-14.821 24.923-14.82 10.763 0 20.122 5.995 24.928 14.827l0.604 1.11 1.731-6.637 6.572 1.686-0.562-1.015c-6.478-11.702-18.949-19.628-33.273-19.628-14.324 0-26.794 7.926-33.274 19.628l-0.562 1.014 6.579-1.685zM50 12.927c13.521 0 25.324 7.262 31.785 18.085l-5.238-1.343-1.359 5.212c-5.129-8.559-14.483-14.297-25.188-14.297-10.701 0-20.053 5.735-25.182 14.289l-1.358-5.205-5.245 1.343c6.461-10.823 18.265-18.084 31.785-18.084zM75.527 62.587l-0.604 1.109c-4.807 8.83-14.163 14.821-24.923 14.821-10.763 0-20.122-5.994-24.928-14.827l-0.604-1.109-1.731 6.636-6.573-1.686 0.562 1.015c6.479 11.701 18.949 19.628 33.274 19.628 14.324 0 26.795-7.927 33.274-19.628l0.562-1.014-6.579 1.685zM50 87.174c-13.521 0-25.324-7.262-31.785-18.085l5.237 1.344 1.36-5.212c5.129 8.557 14.483 14.296 25.188 14.296 10.702 0 20.053-5.735 25.183-14.29l1.357 5.205 5.245-1.343c-6.461 10.822-18.264 18.085-31.785 18.085z" fill="black" fill-rule="nonzero" stroke="none" stroke-width="1" stroke-linecap="butt" stroke-linejoin="miter" stroke-miterlimit="10" stroke-dasharray="" stroke-dashoffset="0" font-family="none" font-weight="none" font-size="none" text-anchor="none" style="mix-blend-mode: normal"></path></g><g transform="matrix(1,0,0,1,73.1061591796969,90)"><svg viewBox="0 0 173.7876816406062 180" height="180" width="173.7876816406062"><g><svg viewBox="0 0 191.99999999999997 198.86334677891756" height="180" width="173.7876816406062"><g transform="matrix(1,0,0,1,0,149.1484546671383)"><svg viewBox="0 0 191.99999999999997 49.714892111779264" height="49.714892111779264" width="191.99999999999997"><g id="SvgjsG2660"><svg viewBox="0 0 191.99999999999997 49.714892111779264" height="49.714892111779264" width="191.99999999999997" id="SvgjsSvg2659"><g><svg viewBox="0 0 191.99999999999997 49.714892111779264" height="49.714892111779264" width="191.99999999999997"><g transform="matrix(1,0,0,1,0,0)"><svg width="191.99999999999997" viewBox="1.25 -36.25 141.34 36.6" height="49.714892111779264" data-palette-color="url(#786dace5-f07f-4f7e-9384-02741e0e9bef)"><g class="wordmark-text-0" data-fill-palette-color="primary" id="SvgjsG2658"><path d="M24.05 0.35L24.05 0.35Q22.05 0.35 20.75-0.55 19.45-1.45 18.65-2.98 17.85-4.5 17.38-6.38 16.9-8.25 16.5-10.15L16.5-10.15Q16-12.8 15.28-15.1 14.55-17.4 12.95-18.3L12.95-18.3Q11.95-14.65 11.05-10.98 10.15-7.3 10.15-3.7L10.15-3.7Q10.15-3.15 10.18-2.58 10.2-2 10.25-1.45L10.25-1.45Q8.5 0.2 6.2 0.2L6.2 0.2Q4.3 0.2 2.78-1.25 1.25-2.7 1.25-5.95L1.25-5.95Q1.25-8.4 2.05-10.95 2.85-13.5 3.93-16.1 5-18.7 5.8-21.28 6.6-23.85 6.6-26.35L6.6-26.35Q6.6-28 6.2-28.68 5.8-29.35 5.15-29.35L5.15-29.35Q4.45-29.35 3.63-28.65 2.8-27.95 2.05-26.5L2.05-26.5 1.7-26.6Q1.8-29.15 2.85-31.3 3.9-33.45 5.68-34.73 7.45-36 9.55-36L9.55-36Q11.65-36 13.25-34.43 14.85-32.85 14.85-29L14.85-29Q14.85-27.3 14.53-25.38 14.2-23.45 13.75-21.45L13.75-21.45Q16-23.4 17.68-25.78 19.35-28.15 20.28-30.43 21.2-32.7 21.2-34.4L21.2-34.4Q21.2-35.5 20.75-36.25L20.75-36.25Q23.2-36.25 25.13-35.55 27.05-34.85 28.2-33.63 29.35-32.4 29.35-30.8L29.35-30.8Q29.35-28.65 26.93-26.1 24.5-23.55 18.75-21.05L18.75-21.05Q20.2-20.4 21.13-19.13 22.05-17.85 22.68-16.38 23.3-14.9 23.75-13.5L23.75-13.5Q24.6-11.05 25.43-9.38 26.25-7.7 27.8-7.7L27.8-7.7Q28.8-7.7 29.58-8.35 30.35-9 30.7-9.8L30.7-9.8 31-9.65Q31-6.95 30.2-4.67 29.4-2.4 27.85-1.03 26.3 0.35 24.05 0.35ZM43.75 0.35L43.75 0.35Q40.1 0.35 37.7-1.13 35.3-2.6 34.1-5.03 32.9-7.45 32.9-10.25L32.9-10.25Q32.9-12.9 33.92-15.58 34.95-18.25 36.92-20.45 38.9-22.65 41.72-24 44.55-25.35 48.1-25.35L48.1-25.35Q52.5-25.35 54.52-23.38 56.55-21.4 56.55-18.6L56.55-18.6Q56.55-16.2 55.27-14.18 54-12.15 51.9-10.93 49.8-9.7 47.3-9.7L47.3-9.7Q46-9.7 44.65-10.1 43.3-10.5 42-11.35L42-11.35Q42.25-8.25 43.8-6.85 45.35-5.45 47.5-5.45L47.5-5.45Q49-5.45 50.5-6.03 52-6.6 53.27-7.53 54.55-8.45 55.25-9.5L55.25-9.5 55.6-9.25Q55.6-6.65 54.52-4.83 53.45-3 51.7-1.85 49.95-0.7 47.87-0.18 45.8 0.35 43.75 0.35ZM44.9-13.15L44.9-13.15Q46.5-13.15 47.5-14.08 48.5-15 49-16.25 49.5-17.5 49.5-18.45L49.5-18.45Q49.5-19.6 48.85-20.38 48.2-21.15 47.05-21.15L47.05-21.15Q46.15-21.15 45.07-20.5 44-19.85 43.15-18.28 42.3-16.7 42.05-13.9L42.05-13.9Q43.65-13.15 44.9-13.15ZM64.45 0.2L64.45 0.2Q62.65 0.2 61.22-1.28 59.8-2.75 59.8-5.35L59.8-5.35Q59.8-6.65 60.15-8.33 60.5-10 60.92-11.75 61.34-13.5 61.7-15.05 62.05-16.6 62.05-17.65L62.05-17.65Q62.05-18.5 61.65-19.03 61.25-19.55 60.59-19.55L60.59-19.55Q59.75-19.55 58.75-18.55L58.75-18.55 58.45-18.75Q58.4-19.55 58.8-20.65 59.2-21.75 60.09-22.78 61-23.8 62.45-24.5 63.9-25.2 65.89-25.2L65.89-25.2Q68.15-25.2 69.27-23.63 70.4-22.05 70.4-19.85L70.4-19.85Q70.4-19.6 70.4-19.33 70.4-19.05 70.34-18.8L70.34-18.8Q71.3-20.35 72.57-21.8 73.84-23.25 75.47-24.23 77.09-25.2 79-25.2L79-25.2Q81.45-25.2 82.4-23.63 83.34-22.05 83.34-20.05L83.34-20.05Q83.34-19.65 83.32-19.28 83.3-18.9 83.25-18.55L83.25-18.55Q84.3-20.1 85.57-21.63 86.84-23.15 88.5-24.18 90.15-25.2 92.3-25.2L92.3-25.2Q94.94-25.2 95.92-23.65 96.9-22.1 96.9-20L96.9-20Q96.9-18.15 96.45-15.78 96-13.4 95.55-11.1 95.09-8.8 95.09-7.2L95.09-7.2Q95.09-6.25 95.37-5.65 95.65-5.05 96.3-5.05L96.3-5.05Q96.84-5.05 97.32-5.38 97.8-5.7 98-6.15L98-6.15 98.4-6Q98.4-4.15 97.34-2.75 96.3-1.35 94.69-0.58 93.09 0.2 91.5 0.2L91.5 0.2Q89.55 0.2 88.07-1.1 86.59-2.4 86.59-5.4L86.59-5.4Q86.59-7.25 87.07-9.4 87.55-11.55 88.02-13.58 88.5-15.6 88.5-16.9L88.5-16.9Q88.5-18.75 87.2-18.75L87.2-18.75Q86.25-18.75 85.32-17.98 84.4-17.2 83.67-15.93 82.95-14.65 82.5-13.25 82.05-11.85 82.05-10.55L82.05-10.55Q82.05-9.35 82.32-7.93 82.59-6.5 82.59-5.2L82.59-5.2Q82.59-2.6 81.15-1.2 79.7 0.2 77.75 0.2L77.75 0.2Q75.95 0.2 74.52-1 73.09-2.2 73.09-4.6L73.09-4.6Q73.09-5.7 73.4-7.28 73.7-8.85 74.07-10.58 74.45-12.3 74.75-13.9 75.05-15.5 75.05-16.7L75.05-16.7Q75.05-17.65 74.77-18.2 74.5-18.75 73.7-18.75L73.7-18.75Q72.55-18.75 71.5-17.6 70.45-16.45 69.7-14.83 68.95-13.2 68.7-11.7L68.7-11.7Q68.65-11.35 68.62-11.15 68.59-10.95 68.59-10.95L68.59-10.95Q68.59-9.4 68.95-8.13 69.3-6.85 69.3-5.5L69.3-5.5Q69.3-3.05 67.82-1.43 66.34 0.2 64.45 0.2ZM111.54 0.35L111.54 0.35Q107.89 0.35 105.49-1.13 103.09-2.6 101.89-5.03 100.69-7.45 100.69-10.25L100.69-10.25Q100.69-12.9 101.72-15.58 102.74-18.25 104.72-20.45 106.69-22.65 109.52-24 112.34-25.35 115.89-25.35L115.89-25.35Q120.29-25.35 122.32-23.38 124.34-21.4 124.34-18.6L124.34-18.6Q124.34-16.2 123.07-14.18 121.79-12.15 119.69-10.93 117.59-9.7 115.09-9.7L115.09-9.7Q113.79-9.7 112.44-10.1 111.09-10.5 109.79-11.35L109.79-11.35Q110.04-8.25 111.59-6.85 113.14-5.45 115.29-5.45L115.29-5.45Q116.79-5.45 118.29-6.03 119.79-6.6 121.07-7.53 122.34-8.45 123.04-9.5L123.04-9.5 123.39-9.25Q123.39-6.65 122.32-4.83 121.24-3 119.49-1.85 117.74-0.7 115.67-0.18 113.59 0.35 111.54 0.35ZM112.69-13.15L112.69-13.15Q114.29-13.15 115.29-14.08 116.29-15 116.79-16.25 117.29-17.5 117.29-18.45L117.29-18.45Q117.29-19.6 116.64-20.38 115.99-21.15 114.84-21.15L114.84-21.15Q113.94-21.15 112.87-20.5 111.79-19.85 110.94-18.28 110.09-16.7 109.84-13.9L109.84-13.9Q111.44-13.15 112.69-13.15ZM133.94 0.2L133.94 0.2Q132.34 0.2 130.91-0.53 129.49-1.25 128.62-2.8 127.74-4.35 127.74-6.75L127.74-6.75Q127.74-8.05 127.99-10.15 128.24-12.25 128.66-14.75 129.09-17.25 129.54-19.75L129.54-19.75Q128.54-19.7 127.62-19.55 126.69-19.4 125.79-19.2L125.79-19.2 125.69-19.55Q126.69-20.75 127.79-21.6 128.89-22.45 130.09-23L130.09-23Q130.74-26.3 131.19-28.73 131.64-31.15 131.64-31.6L131.64-31.6Q131.64-32.45 132.97-33 134.29-33.55 135.94-33.55L135.94-33.55Q137.39-33.55 138.66-33 139.94-32.45 140.39-31.15L140.39-31.15Q140.09-30.85 139.54-28.93 138.99-27 138.39-24.25L138.39-24.25Q139.34-24.2 140.34-24.15 141.34-24.1 142.39-24L142.39-24Q142.49-23.7 142.54-23.35 142.59-23 142.59-22.6L142.59-22.6Q142.59-21.85 142.37-20.98 142.14-20.1 141.84-19.4L141.84-19.4Q140.64-19.5 139.59-19.63 138.54-19.75 137.54-19.8L137.54-19.8Q137.14-17.65 136.81-15.5 136.49-13.35 136.31-11.6 136.14-9.85 136.14-8.85L136.14-8.85Q136.14-6.75 136.91-6.05 137.69-5.35 138.79-5.35L138.79-5.35Q139.79-5.35 140.59-5.75 141.39-6.15 141.74-6.7L141.74-6.7 142.24-6.55Q141.94-4.5 140.64-2.98 139.34-1.45 137.54-0.63 135.74 0.2 133.94 0.2Z" fill="white"></path></g></svg></g></svg></g></svg></g></svg></g><g transform="matrix(1,0,0,1,20.41184131617743,0)"><svg viewBox="0 0 151.1763173676451 137.4119617969579" height="137.4119617969579" width="151.1763173676451"><g><svg xmlns="http://www.w3.org/2000/svg" data-name="Layer 1" viewBox="28.506352615749723 24.745 454.989059419448 462.51399999999995" x="8" y="0" height="137.4119617969579" width="135.1763173676451" class="icon-icon-0" data-fill-palette-color="accent" id="SvgjsSvg2657"><polygon points="151.483 460.997 154.52 439.371 143.623 439.371 140.587 460.997 151.483 460.997" fill="black"></polygon><path d="M165.333 191.9l-0.567-11.7a7.273 7.273 0 0 0-4.211 3.409l-4.929 8.3A46.221 46.221 0 0 0 165.333 191.9Z" fill="black"></path><path d="M223.509 24.745L197.571 135.857 217.964 132l21.363-86.465C238.654 37.759 230.171 29.716 223.509 24.745Z" fill="black"></path><path d="M51.9 250.868l82.436-8.326a5 5 0 1 1 1 9.949l-78.228 7.9 3.58 7.349a19.116 19.116 0 0 0 17.081 10.678h67.7a48.186 48.186 0 0 1 48.081 51.345l-3.392 51.6a34.963 34.963 0 0 0 32.342 22.7c0.231 0 0.464 0.007 0.7 0.007a35.172 35.172 0 0 0 33.012-22.593l-8.623-128.672a5 5 0 0 1 3.1-4.965q17.9-7.291 28.779-19.821a5.052 5.052 0 0 1 0.734-0.86c8.993-10.735 14.176-24.231 15.48-40.394a114.275 114.275 0 0 0-4.785-41.612 5.013 5.013 0 0 1-0.268-1.354c-1.823-31.915-7.359-76.2-23.37-105.935-0.077-0.144-0.154-0.279-0.231-0.421 8 43.454-4.612 106.943-5.286 110.273a5 5 0 0 1-9.8-1.985A465.3 465.3 0 0 0 258.909 92.1c1.918-28.227 0.278-50.29-4.741-64.942L222.917 153.65a5 5 0 0 1-9.709-2.4l2.119-8.573-67.015 12.669a33.565 33.565 0 0 0-21.282 13.592l-11.168 15.689A43.486 43.486 0 0 1 88 202.3L31.576 212.474a3.727 3.727 0 0 0-2.4 5.8Zm89.646-54.823l10.414-17.539c4.093-6.893 11.74-10.051 19.025-7.856l34.232 10.309a5 5 0 1 1-2.884 9.575l-5.608-1.689a55.978 55.978 0 0 1-36.258 13.3 54.969 54.969 0 0 1-10.344-0.965 5 5 0 0 1-8.577-5.137Z" fill="black"></path><path d="M398.834 391.029c-2.6-54.776-28.74-103.467-50.866-135.31a387.068 387.068 0 0 0-44.7-53.323 81.886 81.886 0 0 1-4.542 13.476 351.528 351.528 0 0 1 30.834 49.1c14.551 27.827 32 70.2 34.025 116.148A89.044 89.044 0 0 1 398.834 391.029Z" fill="black"></path><polygon points="174.906 460.997 176.328 439.371 164.617 439.371 161.581 460.997 174.906 460.997" fill="black"></polygon><path d="M148.6 322.034h-5.167L123.65 429.371h53.335l1.715-26.1h-4.882a5 5 0 1 1 0-10h5.539l4.218-64.167a38.188 38.188 0 0 0-33.98-40.467l-4.313 23.393H148.6a5 5 0 1 1 0 10Z" fill="black"></path><path d="M184.7 185.224l-9.821-2.957 0.361 7.446A46.369 46.369 0 0 0 184.7 185.224Z" fill="black"></path><path d="M288.992 232.112l8.837 42.257 0 0.025L320.11 380.909h33.452c-3.4-71.735-45.959-135.885-60.031-155.24A72.673 72.673 0 0 1 288.992 232.112Z" fill="black"></path><polygon points="271.563 460.997 282.585 460.997 279.549 439.371 270.113 439.371 271.563 460.997" fill="black"></polygon><path d="M283.9 270.39h2.885l-6.142-29.37A86.244 86.244 0 0 1 257.8 255.676l9.222 137.6h3.394a5 5 0 0 1 0 10h-2.724l1.749 26.1h50.586L288.872 280.39H283.9a5 5 0 0 1 0-10Z" fill="black"></path><polygon points="292.683 460.997 303.58 460.997 300.543 439.371 289.647 439.371 292.683 460.997" fill="black"></polygon><polygon points="313.677 460.997 326.643 460.997 322.12 439.371 310.641 439.371 313.677 460.997" fill="black"></polygon><path d="M223.2 414.073q-0.442 0-0.888-0.009a45.031 45.031 0 0 1-33.291-15.352l-0.922 14.027c9.7 14.017 25.879 21.469 41.655 19.039 16.029-2.461 25.479-14.418 28.554-18.987l-0.945-14.1A45.382 45.382 0 0 1 223.2 414.073Z" fill="black"></path><path d="M400.94 487.255l-15.1-57.572q-9.591 5.643-20.042 10.585l12.543 46.987Z" fill="black"></path><path d="M185.245 456.179a344.869 344.869 0 0 0 44.325 2.852c10.622 0 21.276-0.488 31.741-1.448l-2.035-30.362a50.58 50.58 0 0 1-28 14.441 49.106 49.106 0 0 1-7.451 0.568A53.016 53.016 0 0 1 187.163 427Z" fill="black"></path><path d="M328.225 471H266.886a4.989 4.989 0 0 1-4.735-3.45c-9.1 0.833-18.341 1.318-27.581 1.447v18.261h96.543Z" fill="black"></path><path d="M341.269 487.255H368L356.554 444.4q-10.411 4.434-21.468 8.121l2.6 12.456a4.98 4.98 0 0 1-0.012 2.074Z" fill="black"></path><path d="M403.517 405.612a79.236 79.236 0 0 0-46.038-14.7H322.2l10.824 51.762C359.952 433.584 384.1 420.88 403.517 405.612Z" fill="black"></path><path d="M482.811 460.647c3.133-58.147-4.5-110.55-22.7-155.827a269.992 269.992 0 0 0-65.553-96.562c-36.846-34.735-75.094-51.146-91.69-57.12 0.635 2.817 1.29 6.181 1.836 9.967 9.45 4.975 43.964 24.96 78.916 67.864 23.512 28.862 42.285 62.153 55.8 98.949 14.647 39.888 23.1 84.011 25.217 131.421Z" fill="black"></path><path d="M120.572 390.909H114.3a79.346 79.346 0 0 0-52.222 19.568 231.892 231.892 0 0 0 49.911 27Z" fill="black"></path><path d="M455.122 475.976c-0.712-52.42-9.1-100.929-24.96-144.252a333.727 333.727 0 0 0-53.947-96.012 290.539 290.539 0 0 0-53.8-51.5c-6.662-4.848-12.338-8.462-16.543-10.961a112.842 112.842 0 0 1-0.218 14.317c-0.078 0.971-0.176 1.958-0.287 2.955a381.879 381.879 0 0 1 50.817 59.486c23.778 34.22 52.035 87.349 52.844 147.226a89.661 89.661 0 0 1 38.16 73.376v5.361Z" fill="black"></path><path d="M432.992 487.255a4.2 4.2 0 0 0 4.192-4.191V470.615a79.5 79.5 0 0 0-25.706-58.561 205.737 205.737 0 0 1-16.742 12.116l16.542 63.085Z" fill="black"></path><path d="M95.575 441.326q-10.475-4.808-20.1-10.338L60.719 487.255H83.314Z" fill="black"></path><path d="M34.592 470.615v12.449a4.2 4.2 0 0 0 4.191 4.191h11.6l16.17-61.667q-6.046-3.851-11.7-7.992A79.369 79.369 0 0 0 34.592 470.615Z" fill="black"></path><polygon points="133.525 439.371 121.806 439.371 117.819 460.997 130.489 460.997 133.525 439.371" fill="black"></polygon><path d="M224.57 468.986a354.479 354.479 0 0 1-39.983-2.8l-0.009 0.143a5 5 0 0 1-4.99 4.672H133.435l-2.889 16.258H224.57Z" fill="black"></path><path d="M123.278 471H111.813a5 5 0 0 1-4.917-5.906l3.242-17.587q-2.67-1.043-5.294-2.129l-11.18 41.88H120.39Z" fill="black"></path></svg></g></svg></g><g><rect width="11.305682136480542" height="4.483340276408914" y="131.928621520549" x="171.58815868382254" fill="black"></rect><rect width="11.305682136480542" height="4.483340276408914" y="131.928621520549" x="9.106159179696888" fill="black"></rect><rect width="11.305682136480542" height="4.483340276408914" y="122.96194096773117" x="171.58815868382254" fill="black"></rect><rect width="11.305682136480542" height="4.483340276408914" y="122.96194096773117" x="9.106159179696888" fill="black"></rect></g></svg></g></svg></g></svg></g><defs><mask></mask></defs></svg><rect width="320" height="360" fill="black" stroke="none" visibility="hidden"></rect></g></mask><linearGradient x1="0" x2="1" y1="0.5" y2="0.5" id="786dace5-f07f-4f7e-9384-02741e0e9bef"><stop stop-color="#ffa62e" offset="0"></stop><stop stop-color="#f71b3d" offset="1"></stop></linearGradient><rect width="320" height="360.00024099999996" fill="#ffffff" mask="url(#9f1b4a24-872e-4204-9ca3-ba397b1d2437)" data-fill-palette-color="primary"></rect></svg><rect width="320" height="360" fill="none" stroke="none" visibility="hidden"></rect></g></svg></g></svg>